PathFileType   4   (X/Y/Z)
DataRate  CameraRate  NumFrames  NumMarkers  Units  OrigDataRate  OrigDataStartFrame  OrigNumFrames  
  120.0      120.0        6         37         mm      120.0          114        151
Frame#      Time                    midhip                           hip_r                           hip_l                          knee_r                          knee_l                         ankle_r                         ankle_l                         midasis                          asis_r                          asis_l                          psis_r                          psis_l                    epicondLat_r                    epicondLat_l                    epicondMed_r                    epicondMed_l                  malleolusLat_r                  malleolusLat_l                 malleolusMedv_r                 malleolusMedv_l                    sternalnotch                  xyphoidprocess                            neck                           toe_r                           toe_l                     thighwand_r                     thighwand_l                     upperleg1_r                     upperleg1_l                     upperleg2_r                     upperleg2_l                     shankwand_r                     shankwand_l                     lowerleg1_r                     lowerleg1_l                   subclavicle_r                   subclavicle_l            
              X1          Y1          Z1          X2          Y2          Z2          X3          Y3          Z3          X4          Y4          Z4          X5          Y5          Z5          X6          Y6          Z6          X7          Y7          Z7          X8          Y8          Z8          X9          Y9          Z9          X10          Y10          Z10          X11          Y11          Z11          X12          Y12          Z12          X13          Y13          Z13          X14          Y14          Z14          X15          Y15          Z15          X16          Y16          Z16          X17          Y17          Z17          X18          Y18          Z18          X19          Y19          Z19          X20          Y20          Z20          X21          Y21          Z21          X22          Y22          Z22          X23          Y23          Z23          X24          Y24          Z24          X25          Y25          Z25          X26          Y26          Z26          X27          Y27          Z27          X28          Y28          Z28          X29          Y29          Z29          X30          Y30          Z30          X31          Y31          Z31          X32          Y32          Z32          X33          Y33          Z33          X34          Y34          Z34          X35          Y35          Z35          X36          Y36          Z36          X37          Y37          Z37          

	114	1.12500	-1507.793	775.243	300.539	-1518.953	769.102	356.536	-1496.634	781.383	244.541	-1560.591	421.224	356.355	-1436.289	433.421	225.010	-1574.486	64.630	329.076	-1562.872	104.033	228.208	-1473.673	846.796	314.456	-1479.972	840.950	425.228	-1467.374	852.642	203.685	-1651.302	875.342	334.146	-1650.085	875.205	280.334	-1534.176	417.258	416.058	-1430.222	430.756	165.996	-1543.784	421.300	296.587	-1421.308	426.169	289.988	-1580.395	62.162	366.025	-1578.239	109.646	195.579	-1574.725	61.907	295.761	-1557.948	103.844	261.482	-1486.202	1201.027	313.048	-1475.765	1099.873	302.983	-1595.199	1269.627	314.262	-1491.759	46.341	347.383	-1486.156	67.503	201.506	-1411.895	559.174	392.812	-1355.911	604.357	164.518	-1467.037	595.769	428.769	-1392.922	637.763	228.548	-1477.408	539.942	422.258	-1384.760	580.852	235.470	-1442.906	171.988	364.710	-1562.913	217.167	109.547	-1523.391	159.440	347.965	-1545.855	201.301	185.653	-1488.206	1196.662	369.244	-1479.085	1205.477	263.500
	115	1.13333	-1503.745	775.072	301.001	-1514.931	768.853	356.985	-1492.559	781.291	245.018	-1558.571	420.813	356.466	-1426.818	433.583	225.356	-1574.416	64.627	328.968	-1545.342	101.113	228.721	-1469.541	846.596	315.039	-1475.897	840.581	425.815	-1463.184	852.612	204.263	-1647.203	875.287	334.519	-1645.990	875.175	280.498	-1533.448	417.163	416.183	-1422.607	431.490	166.324	-1541.815	420.546	297.490	-1412.873	426.485	289.659	-1580.441	62.162	365.899	-1560.873	106.248	196.092	-1574.984	63.115	295.506	-1540.351	101.207	261.987	-1481.687	1200.697	313.521	-1471.645	1099.482	303.674	-1590.367	1269.609	315.203	-1491.628	46.430	347.283	-1467.651	66.914	202.019	-1409.988	558.013	393.353	-1349.819	605.662	164.523	-1464.426	595.022	428.978	-1387.945	638.599	228.511	-1474.905	539.606	422.713	-1378.798	581.839	235.450	-1442.803	171.743	365.004	-1548.810	214.026	110.015	-1523.263	160.790	348.199	-1531.305	198.771	185.903	-1483.638	1196.470	369.704	-1474.616	1205.005	263.981
	116	1.14167	-1499.688	774.816	301.450	-1510.895	768.538	357.422	-1488.480	781.094	245.478	-1557.855	421.088	356.529	-1416.801	434.310	225.715	-1574.303	64.626	328.856	-1527.810	98.343	229.131	-1465.397	846.330	315.597	-1471.816	840.187	426.415	-1458.978	852.472	204.778	-1643.088	875.162	334.825	-1641.867	875.083	280.661	-1532.596	417.082	416.296	-1415.178	432.122	166.670	-1540.880	420.558	297.976	-1403.489	426.242	288.065	-1580.467	62.173	365.765	-1543.443	102.984	196.477	-1574.745	63.708	295.307	-1522.471	98.376	262.262	-1476.953	1200.443	313.896	-1467.201	1099.185	304.196	-1585.417	1269.611	315.849	-1491.436	46.544	347.146	-1449.217	66.313	202.635	-1407.996	556.852	394.016	-1343.632	606.819	164.546	-1462.129	594.166	429.409	-1382.636	639.426	228.730	-1473.035	539.359	423.241	-1372.358	582.565	235.221	-1442.651	171.441	365.354	-1534.562	210.886	110.369	-1522.795	161.631	348.211	-1516.207	196.196	186.240	-1478.806	1196.308	370.149	-1469.965	1204.655	264.275
	117	1.15000	-1495.605	774.504	301.897	-1506.841	768.191	357.860	-1484.370	780.817	245.934	-1556.747	421.240	356.607	-1409.893	436.156	226.090	-1574.133	64.630	328.748	-1510.299	95.745	229.427	-1461.228	846.008	316.130	-1467.720	839.781	427.007	-1454.735	852.236	205.254	-1638.949	874.982	335.042	-1637.687	874.935	280.811	-1531.606	417.016	416.403	-1407.952	432.656	167.052	-1539.249	421.119	297.405	-1396.628	426.263	285.895	-1580.471	62.196	365.629	-1525.992	99.891	196.734	-1574.109	63.698	295.179	-1505.258	95.609	262.628	-1472.277	1200.157	313.977	-1462.752	1098.868	304.376	-1580.796	1269.684	315.980	-1491.223	46.649	347.017	-1430.867	65.702	203.309	-1405.859	555.716	394.811	-1337.527	607.815	164.572	-1460.293	593.441	430.327	-1376.478	640.485	229.197	-1471.458	538.826	423.779	-1365.973	583.061	234.962	-1442.457	171.046	365.803	-1520.249	207.803	110.638	-1522.000	161.716	348.170	-1501.664	193.680	186.933	-1474.182	1196.069	370.372	-1465.242	1204.318	264.216
	118	1.15833	-1491.454	774.147	302.348	-1502.731	767.823	358.301	-1480.178	780.471	246.395	-1556.157	422.212	356.703	-1403.855	436.882	226.533	-1573.908	64.635	328.653	-1492.834	93.343	229.607	-1457.019	845.649	316.645	-1463.605	839.378	427.568	-1450.433	851.920	205.723	-1634.786	874.758	335.158	-1633.439	874.725	280.927	-1530.473	416.957	416.511	-1400.934	433.091	167.479	-1538.048	421.805	297.447	-1390.964	426.693	285.672	-1580.454	62.230	365.499	-1508.563	97.008	196.874	-1573.386	63.150	295.154	-1488.113	92.867	262.882	-1467.755	1199.583	314.123	-1458.460	1098.269	304.570	-1576.296	1269.486	315.976	-1491.025	46.714	346.931	-1412.624	65.101	203.994	-1403.538	554.623	395.739	-1331.681	608.643	164.597	-1457.640	593.568	430.911	-1370.978	641.158	229.485	-1469.690	538.211	424.200	-1360.377	583.552	235.167	-1442.218	170.545	366.361	-1505.950	204.829	110.848	-1521.187	160.796	348.312	-1487.149	191.187	187.681	-1469.604	1195.535	370.480	-1460.768	1203.697	264.393
	119	1.16667	-1487.224	773.763	302.812	-1498.556	767.446	358.754	-1475.891	780.079	246.869	-1555.557	423.617	356.797	-1396.255	436.826	227.073	-1573.639	64.642	328.575	-1475.446	91.163	229.692	-1452.766	845.270	317.149	-1459.477	838.997	428.080	-1446.056	851.543	206.217	-1630.601	874.502	335.175	-1629.156	874.453	280.997	-1529.190	416.894	416.628	-1394.124	433.423	167.948	-1536.730	421.903	298.466	-1384.035	426.973	286.284	-1580.420	62.275	365.381	-1491.204	94.363	196.924	-1572.914	62.630	295.151	-1470.519	90.695	262.888	-1463.210	1198.910	314.422	-1454.263	1097.561	304.900	-1571.516	1269.228	315.956	-1490.870	46.716	346.908	-1394.519	64.553	204.652	-1401.028	553.587	396.798	-1326.266	609.294	164.632	-1454.073	594.247	430.815	-1366.493	641.535	229.843	-1467.435	537.750	424.463	-1355.219	584.171	235.644	-1441.916	169.939	367.009	-1491.739	202.005	111.022	-1520.850	159.868	348.509	-1472.360	189.078	187.798	-1465.184	1194.873	370.800	-1456.110	1202.993	264.683
